<?xml version="1.0" encoding="utf-8"?>
<!-- Generator: Adobe Illustrator 23.0.0, SVG Export Plug-In . SVG Version: 6.00 Build 0)  -->
<svg version="1.1" id="Layer_1" xmlns="http://www.w3.org/2000/svg" xmlns:xlink="http://www.w3.org/1999/xlink" x="0px" y="0px"
	 viewBox="0 0 1500 1500" style="enable-background:new 0 0 1500 1500;" xml:space="preserve">
<style type="text/css">
	.st0{fill:#FFD682;}
	.st1{fill:#028C6C;}
	.st2{fill:#145A45;}
	.st3{fill:#FAAB1E;}
	.st4{fill:#FFFFFF;}
	.st5{fill:#272133;}
	.st6{fill:#EAD8C1;}
	.st7{fill:#007C62;}
</style>
<path class="st0" d="M-1581.28,7224.73h-879.74c-8.8,0-15.94-7.14-15.94-15.94V4225.78c0-8.8,7.14-15.94,15.94-15.94h879.74
	c8.8,0,15.94,7.14,15.94,15.94v2983.01C-1565.34,7217.59-1572.47,7224.73-1581.28,7224.73z"/>
<path class="st0" d="M-532.47,7122.76h-879.74c-8.8,0-15.94-7.14-15.94-15.94V4123.82c0-8.8,7.14-15.94,15.94-15.94h879.74
	c8.8,0,15.94,7.14,15.94,15.94v2983.01C-516.53,7115.63-523.67,7122.76-532.47,7122.76z"/>
<g>
	<path class="st1" d="M428.63,6563.24c-54.62-149.18-197.86-255.65-365.97-255.65h-0.01c-154.66,0-288.27,90.11-351.19,220.7
		c-24.62,51.1-38.42,108.39-38.42,168.91v278.47c259.74,133.68,519.48,267.35,779.22,401.03v-679.5
		C452.27,6650.13,443.92,6605.01,428.63,6563.24z M-51,6714.39c0-13.71,2.44-26.86,6.91-39.04c1.28-3.48,2.72-6.88,4.32-10.19
		c1.6-3.31,3.35-6.54,5.25-9.66c19.96-32.81,56.05-54.77,97.18-54.77c41.13,0,77.23,21.96,97.18,54.77
		c10.45,17.19,16.48,37.35,16.48,58.89v206.7C100.55,6881.89,24.78,6842.7-51,6803.52V6714.39z"/>
	<polygon class="st2" points="-326.95,6975.67 -51,6803.52 176.32,6921.08 452.27,7376.7 	"/>
</g>
<g>
	<path class="st0" d="M1116.41,471.24c-54.62-149.18-197.86-255.65-365.97-255.65h-0.01c-154.66,0-288.27,90.11-351.19,220.7
		c-24.62,51.1-38.42,108.39-38.42,168.91v278.47c259.74,133.68,519.48,267.35,779.22,401.03V605.2
		C1140.05,558.13,1131.71,513.01,1116.41,471.24z M636.78,622.39c0-13.71,2.44-26.86,6.91-39.04c1.28-3.48,2.72-6.88,4.32-10.19
		c1.6-3.31,3.35-6.54,5.25-9.66c19.96-32.81,56.05-54.77,97.18-54.77c41.13,0,77.23,21.96,97.18,54.77
		c10.45,17.19,16.48,37.35,16.48,58.89v206.7c-75.77-39.19-151.55-78.38-227.32-117.57V622.39z"/>
	<polygon class="st3" points="360.83,883.67 636.78,711.52 864.1,829.08 1140.05,1284.7 	"/>
</g>
<g>
	<path class="st1" d="M-4266.16,3339.44c-0.04-0.91-0.06-1.82-0.1-2.73c-0.09-1.94-0.22-3.87-0.33-5.81
		c-0.28-4.8-0.65-9.59-1.09-14.35c-0.18-1.92-0.34-3.85-0.55-5.77c-0.68-6.36-1.45-12.69-2.41-18.96c-0.08-0.5-0.18-0.99-0.26-1.49
		c-0.9-5.79-1.94-11.53-3.08-17.24c-0.41-2.07-0.86-4.12-1.3-6.18c-0.92-4.3-1.91-8.57-2.96-12.82c-0.51-2.07-1.01-4.14-1.55-6.19
		c-1.5-5.7-3.09-11.37-4.82-16.98c-0.44-1.44-0.94-2.85-1.39-4.28c-1.47-4.59-3-9.15-4.62-13.67c-0.84-2.33-1.71-4.64-2.59-6.96
		c-1.34-3.54-2.73-7.06-4.16-10.55c-0.96-2.35-1.91-4.7-2.91-7.02c-1.89-4.38-3.85-8.71-5.88-13.01c-1.38-2.93-2.81-5.82-4.26-8.72
		c-1.64-3.28-3.29-6.55-5.01-9.79c-1.39-2.62-2.83-5.2-4.27-7.79c-1.5-2.69-3.04-5.35-4.6-8c-1.55-2.63-3.09-5.27-4.69-7.86
		c-1.74-2.82-3.55-5.58-5.36-8.36c-72.73-111.85-196.55-187.35-338.42-193.35c0.03-0.16,0.04-0.31,0.07-0.46h-18.32
		c-0.01,0-0.02,0-0.02,0c-0.01,0-0.03,0-0.04,0h-275.21v0h-150.03v408.32v205.9v0v16.95h0.4c0.04,0.91,0.06,1.82,0.1,2.73
		c0.09,1.94,0.22,3.87,0.33,5.81c0.28,4.8,0.65,9.59,1.09,14.35c0.18,1.92,0.34,3.85,0.55,5.77c0.68,6.36,1.45,12.69,2.41,18.96
		c0.08,0.5,0.18,0.99,0.25,1.49c0.9,5.79,1.94,11.53,3.08,17.24c0.41,2.07,0.86,4.12,1.3,6.18c0.92,4.3,1.91,8.57,2.96,12.82
		c0.51,2.07,1.01,4.14,1.55,6.19c1.5,5.7,3.09,11.37,4.82,16.98c0.44,1.44,0.94,2.85,1.39,4.28c1.47,4.59,3,9.15,4.62,13.67
		c0.84,2.33,1.71,4.64,2.59,6.96c1.34,3.54,2.73,7.06,4.16,10.55c0.96,2.35,1.91,4.7,2.91,7.02c1.89,4.38,3.85,8.71,5.88,13.01
		c1.38,2.93,2.81,5.82,4.26,8.72c1.64,3.28,3.29,6.55,5.01,9.79c1.39,2.62,2.83,5.2,4.27,7.79c1.5,2.69,3.04,5.35,4.6,8
		c1.55,2.63,3.09,5.27,4.69,7.86c1.74,2.82,3.55,5.58,5.36,8.36c72.73,111.85,196.55,187.35,338.42,193.35
		c-0.03,0.16-0.04,0.31-0.07,0.46h18.32c0.01,0,0.02,0,0.02,0c0.01,0,0.03,0,0.04,0h275.21v0h150.03v0v-150.03V3562.3v-205.9v-16.95
		H-4266.16z"/>
	<path class="st2" d="M-4265.77,3356.4c-82.4,56.8-164.79,113.59-247.19,170.39c-59.35,147.94-118.7,295.89-178.05,443.83
		c141.74,0,283.49,0,425.23,0C-4265.77,3765.88-4265.77,3561.14-4265.77,3356.4z"/>
	<g>
		<path class="st4" d="M-4692.35,3239.54c17.89-16.8,29.09-40.65,29.09-67.14c0-50.86-41.23-92.1-92.1-92.1s-92.1,41.23-92.1,92.1
			c0,26.48,11.19,50.34,29.09,67.14c-7.89,2.08-51.06,14.31-76.4,58.62c-25.02,43.76-14.22,86.58-12.02,94.61
			c101.61,0,203.22,0,304.83,0c2.09-8.7,11.38-51.32-14-94.61C-4641.56,3254.48-4683.84,3241.89-4692.35,3239.54z"/>
	</g>
	<path class="st4" d="M-4455.24,3728.29h-453.85c-2.13,0-3.85-1.73-3.85-3.85v-67.4c0-2.13,1.73-3.85,3.85-3.85h453.85
		c2.13,0,3.85,1.73,3.85,3.85v67.4C-4451.38,3726.56-4453.11,3728.29-4455.24,3728.29z"/>
	<path class="st4" d="M-4455.24,3569.32h-453.85c-2.13,0-3.85-1.73-3.85-3.85v-67.4c0-2.13,1.73-3.85,3.85-3.85h453.85
		c2.13,0,3.85,1.73,3.85,3.85v67.4C-4451.38,3567.59-4453.11,3569.32-4455.24,3569.32z"/>
</g>
<g>
	<g>
		<path class="st5" d="M-6087.36,5292.4c-4.64,0-9.36-0.88-13.93-2.75c-18.81-7.7-27.82-29.19-20.12-48l166.88-407.77l322.56-118.79
			c19.07-7.02,40.23,2.75,47.26,21.82c7.03,19.07-2.75,40.23-21.82,47.26l-292.15,107.59l-154.6,377.78
			C-6059.11,5283.77-6072.85,5292.4-6087.36,5292.4z"/>
	</g>
	<g>
		<path class="st1" d="M-5629.99,4385.49c-25.43-69.46-92.12-119.02-170.38-119.02h0c-72,0-134.21,41.95-163.5,102.75
			c-11.46,23.79-17.89,50.47-17.89,78.64v129.65c120.93,62.24,241.86,124.47,362.78,186.71v-316.36
			C-5618.98,4425.95-5622.87,4404.94-5629.99,4385.49z M-5853.29,4455.87c0-6.38,1.14-12.51,3.22-18.18
			c0.59-1.62,1.27-3.2,2.01-4.75s1.56-3.04,2.45-4.5c9.29-15.28,26.1-25.5,45.25-25.5c19.15,0,35.95,10.22,45.25,25.5
			c4.87,8,7.67,17.39,7.67,27.42v96.23c-35.28-18.25-70.56-36.49-105.84-54.74V4455.87z"/>
	</g>
	<g>
		<polygon class="st2" points="-5981.77,4577.51 -5853.29,4497.36 -5747.46,4552.1 -5618.98,4764.22 		"/>
	</g>
	<g>
		<path class="st0" d="M-6095.92,4872.75c-25.43-69.46-92.12-119.02-170.38-119.02h0c-72,0-134.21,41.95-163.5,102.75
			c-11.46,23.79-17.89,50.47-17.89,78.64v129.65c120.93,62.24,241.86,124.47,362.78,186.71v-316.36
			C-6084.91,4913.21-6088.8,4892.2-6095.92,4872.75z M-6319.22,4943.12c0-6.38,1.14-12.51,3.22-18.18c0.59-1.62,1.27-3.2,2.01-4.75
			s1.56-3.04,2.45-4.5c9.29-15.28,26.1-25.5,45.25-25.5c19.15,0,35.95,10.22,45.25,25.5c4.87,8,7.67,17.39,7.67,27.42v96.23
			c-35.28-18.25-70.56-36.49-105.84-54.74V4943.12z"/>
	</g>
	<g>
		<polygon class="st3" points="-6447.69,5064.77 -6319.22,4984.62 -6213.38,5039.35 -6084.91,5251.48 		"/>
	</g>
</g>
<g>
	<g>
		<path class="st5" d="M-3293.53,3860.2h-657.71v-482.63c-0.52-7.06-1.1-16.79,0.67-26.26c7.36-153.8,83.88-295.73,205.29-380.31
			l0.93-0.65c2.65-1.85,5.29-3.69,7.98-5.47c2.55-1.69,5.09-3.29,7.63-4.89l0.78-0.49c2.84-1.79,5.68-3.54,8.55-5.27
			c2.8-1.67,5.57-3.32,8.36-4.91c3.43-1.96,6.93-3.85,10.44-5.74c3.1-1.66,6.2-3.3,9.33-4.88c4.62-2.33,9.27-4.6,13.97-6.76
			c2.15-1,4.36-1.97,6.57-2.93l0.98-0.43c3.67-1.62,7.45-3.22,11.26-4.76c2.66-1.08,5.04-2.04,7.44-2.96
			c4.88-1.87,9.77-3.64,14.7-5.33l1.36-0.48c1.08-0.38,2.16-0.76,3.24-1.12c5.65-1.87,11.61-3.69,18.22-5.54
			c1.68-0.48,3.42-0.93,5.16-1.39l1.48-0.39c4.54-1.2,9.13-2.34,13.76-3.4l1.08-0.24c1.85-0.43,3.71-0.86,5.57-1.25
			c6.48-1.38,12.53-2.54,18.48-3.54l1.5-0.27c6.3-1.03,12.96-1.94,20.47-2.79c1.61-0.19,3.25-0.35,4.88-0.5l1.33-0.13
			c5.09-0.5,10.23-0.93,15.39-1.25l1.49-0.1c1.56-0.1,3.11-0.2,4.68-0.28l3.61-0.14l17.56-0.43h639.54v482.61
			c0.52,7.06,1.1,16.8-0.67,26.27c-7.37,153.8-83.89,295.74-205.29,380.32l-0.93,0.65c-2.65,1.84-5.29,3.69-7.98,5.47
			c-2.69,1.77-5.36,3.46-8.03,5.14c-3.21,2.02-6.05,3.78-8.92,5.5c-2.77,1.66-5.53,3.3-8.32,4.89c-3.51,2-7.01,3.9-10.52,5.77
			c-3.06,1.64-6.17,3.29-9.3,4.87c-4.61,2.33-9.24,4.58-13.92,6.74c-2.22,1.02-4.44,1.99-6.66,2.97l-0.93,0.4
			c-3.71,1.62-7.47,3.23-11.27,4.76c-2.46,1-4.93,1.99-7.42,2.95c-4.89,1.88-9.77,3.63-14.68,5.32l-1.39,0.49
			c-1.08,0.38-2.16,0.76-3.24,1.12c-5.66,1.87-11.61,3.68-18.19,5.54c-1.79,0.5-3.53,0.96-5.27,1.42l-1.4,0.37
			c-4.56,1.2-9.15,2.34-13.76,3.4l-1.07,0.25c-1.86,0.43-3.72,0.86-5.59,1.26c-6.5,1.38-12.56,2.54-18.5,3.53
			c-0.4,0.09-1.12,0.22-1.85,0.33c-5.89,0.96-12.54,1.87-20.09,2.74c-2.05,0.23-3.71,0.39-5.29,0.55l-0.98,0.1
			c-5.5,0.53-13.26,1.26-22.98,2.07L-3293.53,3860.2z M-3877.63,3786.59h581.04c8.58-0.72,15.47-1.36,20.43-1.85l1.07-0.1
			c1.21-0.12,2.49-0.24,4.02-0.41c6.22-0.71,11.66-1.45,16.57-2.25c0.58-0.11,1.09-0.21,1.6-0.29c4.82-0.8,9.83-1.76,15.27-2.92
			c1.46-0.31,2.89-0.65,4.33-0.98l1.16-0.26c3.85-0.89,7.65-1.83,11.43-2.83l1.52-0.4c1.34-0.35,2.69-0.7,4.02-1.08
			c5.49-1.55,10.44-3.06,15.08-4.59l3.82-1.34c4.04-1.39,8.1-2.85,12.14-4.4c2.04-0.78,4.11-1.62,6.18-2.46
			c3.16-1.28,6.29-2.61,9.41-3.97l1.01-0.44c1.75-0.77,3.5-1.52,5.24-2.33c3.9-1.8,7.78-3.69,11.62-5.63
			c2.59-1.31,5.17-2.68,7.75-4.06c2.96-1.58,5.88-3.16,8.77-4.81c2.3-1.31,4.62-2.69,6.94-4.08c2.38-1.43,4.77-2.9,7.14-4.4
			l0.45-0.28c2.21-1.39,4.43-2.78,6.61-4.22c2.14-1.42,4.3-2.93,6.46-4.44l0.97-0.68c103.73-72.27,168.78-194.54,174.01-327.09
			l0.57-14.42c-0.01-0.18-0.03-0.36-0.04-0.55l-0.1-2.77v-410.37h-565.47l-18,0.48c-1.13,0.06-2.32,0.13-3.52,0.22l-1.64,0.11
			c-4.27,0.27-8.52,0.61-12.75,1.04l-1.49,0.15c-1.21,0.11-2.41,0.23-3.61,0.37c-6.36,0.73-11.88,1.48-16.89,2.29l-1.32,0.25
			c-4.85,0.81-9.87,1.77-15.31,2.93c-1.45,0.31-2.88,0.64-4.31,0.97l-1.17,0.27c-3.84,0.88-7.62,1.82-11.39,2.82l-1.69,0.44
			c-1.27,0.34-2.55,0.67-3.81,1.03c-5.58,1.57-10.51,3.07-15.13,4.6l-3.85,1.35c-4.05,1.39-8.11,2.85-12.13,4.39
			c-1.97,0.76-3.95,1.56-5.94,2.37c-3.39,1.38-6.51,2.69-9.61,4.05l-1.11,0.48c-1.73,0.76-3.46,1.5-5.17,2.3
			c-3.93,1.82-7.78,3.69-11.61,5.62c-2.61,1.32-5.2,2.69-7.78,4.07c-2.92,1.57-5.84,3.14-8.73,4.79c-2.37,1.35-4.68,2.73-6.98,4.11
			c-2.37,1.42-4.75,2.9-7.13,4.39l-0.78,0.49c-2.1,1.33-4.2,2.65-6.28,4.02c-2.14,1.42-4.3,2.93-6.46,4.44l-0.97,0.68
			c-103.73,72.27-168.78,194.54-174.01,327.09l-0.57,14.42c0.01,0.18,0.03,0.36,0.04,0.54l0.11,2.84L-3877.63,3786.59z"/>
	</g>
	<g>
		<path class="st5" d="M-3548.79,3860.2c-20.33,0-36.81-16.48-36.81-36.81v-865.91c0-20.33,16.48-36.81,36.81-36.81
			s36.81,16.48,36.81,36.81v865.91C-3511.99,3843.73-3528.47,3860.2-3548.79,3860.2z"/>
	</g>
	<g>
		<path class="st5" d="M-3280.34,3837.96c-20.33,0-36.81-16.48-36.81-36.81v-654.88c0-20.33,16.48-36.81,36.81-36.81
			c20.33,0,36.81,16.48,36.81,36.81v654.88C-3243.53,3821.48-3260.01,3837.96-3280.34,3837.96z"/>
	</g>
	<g>
		<path class="st1" d="M-3037.02,2956.56c-25.43-69.46-92.12-119.03-170.39-119.03h0c-72.01,0-134.21,41.96-163.51,102.75
			c-11.46,23.79-17.89,50.47-17.89,78.64v129.65c120.93,62.24,241.86,124.48,362.79,186.71v-316.36
			C-3026.01,2997.02-3029.89,2976.01-3037.02,2956.56z M-3260.32,3026.94c0-6.38,1.14-12.51,3.22-18.18
			c0.59-1.62,1.27-3.2,2.01-4.75s1.56-3.04,2.45-4.5c9.29-15.28,26.1-25.5,45.25-25.5c19.15,0,35.96,10.22,45.25,25.5
			c4.87,8,7.67,17.39,7.67,27.42v96.23c-35.28-18.25-70.56-36.49-105.84-54.74V3026.94z"/>
	</g>
	<g>
		<polygon class="st2" points="-3388.8,3148.59 -3260.32,3068.44 -3154.49,3123.17 -3026.01,3335.3 		"/>
	</g>
	<g>
		<path class="st1" d="M-3470.52,3319.08c-25.43-69.46-92.12-119.03-170.39-119.03h0c-72.01,0-134.21,41.96-163.51,102.75
			c-11.46,23.79-17.89,50.47-17.89,78.64v129.65c120.93,62.24,241.86,124.48,362.79,186.71v-316.36
			C-3459.51,3359.53-3463.4,3338.52-3470.52,3319.08z M-3693.83,3389.45c0-6.38,1.14-12.51,3.22-18.18c0.59-1.62,1.27-3.2,2.01-4.75
			c0.74-1.54,1.56-3.04,2.45-4.5c9.29-15.28,26.1-25.5,45.25-25.5c19.15,0,35.96,10.22,45.25,25.5c4.87,8,7.67,17.39,7.67,27.42
			v96.23c-35.28-18.25-70.56-36.49-105.84-54.74V3389.45z"/>
	</g>
	<g>
		<polygon class="st2" points="-3822.3,3511.1 -3693.83,3430.95 -3587.99,3485.68 -3459.51,3697.81 		"/>
	</g>
</g>
<g>
	<path class="st1" d="M-4330.24,4667.83c-0.04-0.91-0.06-1.82-0.1-2.73c-0.09-1.94-0.22-3.87-0.33-5.81
		c-0.28-4.8-0.65-9.59-1.09-14.35c-0.18-1.92-0.34-3.85-0.55-5.77c-0.68-6.36-1.45-12.69-2.41-18.96c-0.08-0.5-0.18-0.99-0.26-1.49
		c-0.9-5.79-1.94-11.53-3.08-17.24c-0.41-2.07-0.86-4.12-1.3-6.18c-0.92-4.3-1.91-8.57-2.96-12.82c-0.51-2.07-1.01-4.14-1.55-6.19
		c-1.5-5.71-3.09-11.37-4.82-16.98c-0.44-1.44-0.94-2.85-1.39-4.28c-1.47-4.59-3-9.15-4.62-13.67c-0.84-2.33-1.71-4.64-2.59-6.96
		c-1.34-3.54-2.73-7.06-4.16-10.55c-0.96-2.35-1.91-4.7-2.91-7.02c-1.88-4.38-3.85-8.71-5.88-13.01c-1.38-2.93-2.81-5.82-4.26-8.72
		c-1.64-3.28-3.29-6.55-5.01-9.79c-1.39-2.62-2.83-5.2-4.27-7.79c-1.5-2.69-3.04-5.35-4.6-8c-1.55-2.63-3.09-5.27-4.69-7.86
		c-1.74-2.82-3.55-5.58-5.36-8.36c-72.73-111.85-196.55-187.35-338.42-193.35c0.03-0.16,0.04-0.31,0.07-0.46h-18.32
		c-0.01,0-0.02,0-0.02,0c-0.01,0-0.03,0-0.04,0h-275.21l0,0h-150.03v408.32v205.9v0v16.95h0.4c0.04,0.91,0.06,1.82,0.1,2.73
		c0.09,1.94,0.22,3.87,0.33,5.81c0.28,4.8,0.65,9.59,1.09,14.35c0.18,1.92,0.34,3.85,0.55,5.77c0.68,6.36,1.45,12.69,2.41,18.96
		c0.08,0.5,0.18,0.99,0.26,1.49c0.9,5.79,1.94,11.53,3.08,17.24c0.41,2.07,0.86,4.12,1.3,6.18c0.92,4.3,1.91,8.57,2.96,12.82
		c0.51,2.07,1.01,4.14,1.55,6.19c1.5,5.71,3.09,11.37,4.82,16.98c0.44,1.44,0.94,2.85,1.39,4.28c1.47,4.59,3,9.15,4.62,13.67
		c0.84,2.33,1.71,4.64,2.59,6.96c1.34,3.54,2.73,7.06,4.16,10.55c0.96,2.35,1.91,4.7,2.91,7.02c1.89,4.38,3.85,8.71,5.88,13.01
		c1.38,2.93,2.81,5.82,4.26,8.72c1.64,3.28,3.29,6.55,5.01,9.79c1.39,2.62,2.83,5.2,4.27,7.79c1.5,2.69,3.04,5.35,4.6,8
		c1.55,2.63,3.09,5.27,4.69,7.86c1.74,2.82,3.55,5.58,5.36,8.36c72.73,111.85,196.55,187.35,338.42,193.35
		c-0.03,0.16-0.04,0.31-0.07,0.46h18.32c0.01,0,0.02,0,0.02,0c0.01,0,0.03,0,0.04,0h275.21v0h150.03v0v-150.03v-258.29v-205.9
		v-16.95H-4330.24z"/>
	<path class="st2" d="M-5180.39,4259.51v502.31l277.02,101.5c34.44-201.14,68.88-402.28,103.31-603.42
		C-4926.84,4259.77-5053.62,4259.64-5180.39,4259.51z"/>
	<g>
		<path class="st4" d="M-4571.48,4489.95l-204.06-132.46l-200.13,132.7v271.63h34.48v-118.64c0-26.85,21.77-48.62,48.62-48.62
			s48.62,21.77,48.62,48.62v118.64h22.78v-118.64c0-26.85,21.77-48.62,48.62-48.62s48.62,21.77,48.62,48.62v118.64h22.78v-118.64
			c0-26.85,21.77-48.62,48.62-48.62s48.62,21.77,48.62,48.62v118.64h32.42V4489.95z"/>
	</g>
	<path class="st4" d="M-4524.62,5059.85h-453.85c-2.13,0-3.85-1.73-3.85-3.85v-67.4c0-2.13,1.73-3.85,3.85-3.85h453.85
		c2.13,0,3.85,1.73,3.85,3.85v67.4C-4520.77,5058.12-4522.5,5059.85-4524.62,5059.85z"/>
	<path class="st4" d="M-4524.62,4900.88h-453.85c-2.13,0-3.85-1.73-3.85-3.85v-67.4c0-2.13,1.73-3.85,3.85-3.85h453.85
		c2.13,0,3.85,1.73,3.85,3.85v67.4C-4520.77,4899.15-4522.5,4900.88-4524.62,4900.88z"/>
</g>
<path class="st1" d="M-2881.35,7079h-1110.29c-13.45,0-24.35-10.9-24.35-24.35V4175.35c0-13.45,10.9-24.35,24.35-24.35h1110.29
	c13.45,0,24.35,10.9,24.35,24.35v2879.29C-2857,7068.1-2867.9,7079-2881.35,7079z"/>
<g>
	<g>
		<path class="st4" d="M-3532.45,5342.55c-4.68,0-9.43-0.89-14.03-2.77c-18.96-7.76-28.03-29.41-20.27-48.37l168.13-410.84
			l324.99-119.69c19.21-7.07,40.53,2.77,47.61,21.98c7.08,19.22-2.77,40.53-21.98,47.61l-294.35,108.4l-155.76,380.62
			C-3503.99,5333.86-3517.84,5342.55-3532.45,5342.55z"/>
	</g>
	<g>
		<path class="st6" d="M-3071.64,4428.83c-25.62-69.98-92.81-119.92-171.67-119.92h0c-72.55,0-135.22,42.27-164.73,103.52
			c-11.55,23.97-18.02,50.85-18.02,79.23v130.62c121.84,62.7,243.68,125.41,365.51,188.11v-318.74
			C-3060.55,4469.58-3064.47,4448.42-3071.64,4428.83z M-3296.62,4499.73c0-6.43,1.14-12.6,3.24-18.31c0.6-1.63,1.28-3.23,2.03-4.78
			s1.57-3.07,2.46-4.53c9.36-15.39,26.29-25.69,45.59-25.69s36.22,10.3,45.59,25.69c4.9,8.06,7.73,17.52,7.73,27.63v96.96
			c-35.54-18.38-71.09-36.77-106.63-55.15V4499.73z"/>
	</g>
	<g>
		<polygon class="st4" points="-3426.07,4622.29 -3296.62,4541.53 -3189.99,4596.68 -3060.55,4810.4 		"/>
	</g>
	<g>
		<path class="st4" d="M-3541.07,4919.75c-25.62-69.98-92.81-119.92-171.67-119.92h0c-72.55,0-135.22,42.27-164.73,103.52
			c-11.55,23.97-18.02,50.84-18.02,79.23v130.62c121.84,62.7,243.68,125.41,365.51,188.11v-318.74
			C-3529.98,4960.5-3533.9,4939.34-3541.07,4919.75z M-3766.05,4990.65c0-6.43,1.14-12.6,3.24-18.31c0.6-1.63,1.28-3.23,2.03-4.78
			s1.57-3.07,2.46-4.53c9.36-15.39,26.29-25.69,45.59-25.69c19.29,0,36.22,10.3,45.59,25.69c4.9,8.06,7.73,17.52,7.73,27.63v96.96
			c-35.54-18.38-71.09-36.77-106.63-55.15V4990.65z"/>
	</g>
	<g>
		<polygon class="st6" points="-3895.49,5113.21 -3766.05,5032.45 -3659.42,5087.6 -3529.98,5301.32 		"/>
	</g>
</g>
<g>
	<path class="st6" d="M-2968.3,6121.31c-0.04-0.9-0.06-1.8-0.1-2.7c-0.09-1.92-0.21-3.83-0.33-5.74c-0.28-4.75-0.64-9.48-1.08-14.18
		c-0.18-1.9-0.34-3.81-0.54-5.7c-0.67-6.29-1.44-12.54-2.38-18.74c-0.07-0.49-0.18-0.98-0.25-1.47c-0.89-5.72-1.92-11.4-3.04-17.05
		c-0.41-2.05-0.85-4.08-1.29-6.11c-0.91-4.25-1.89-8.48-2.92-12.68c-0.51-2.04-0.99-4.09-1.53-6.12
		c-1.48-5.64-3.06-11.25-4.77-16.79c-0.44-1.42-0.93-2.82-1.38-4.23c-1.45-4.54-2.97-9.04-4.57-13.51
		c-0.83-2.31-1.69-4.59-2.56-6.88c-1.33-3.5-2.7-6.98-4.11-10.43c-0.95-2.32-1.89-4.64-2.88-6.94c-1.86-4.33-3.81-8.61-5.81-12.86
		c-1.36-2.9-2.78-5.76-4.21-8.62c-1.62-3.24-3.25-6.48-4.96-9.67c-1.38-2.59-2.8-5.14-4.22-7.7c-1.49-2.66-3-5.29-4.55-7.91
		c-1.53-2.6-3.05-5.21-4.64-7.77c-1.72-2.79-3.51-5.52-5.3-8.26c-71.9-110.58-194.32-185.23-334.59-191.16
		c0.03-0.15,0.04-0.3,0.07-0.46h-18.11c-0.01,0-0.02,0-0.02,0c-0.01,0-0.03,0-0.04,0h-272.09v0h-148.33v403.69v203.56v0v16.76h0.39
		c0.04,0.9,0.06,1.8,0.1,2.7c0.09,1.92,0.21,3.83,0.33,5.74c0.28,4.75,0.64,9.48,1.08,14.18c0.18,1.9,0.34,3.81,0.54,5.7
		c0.67,6.29,1.44,12.54,2.38,18.74c0.07,0.49,0.18,0.98,0.25,1.47c0.89,5.72,1.92,11.4,3.04,17.05c0.41,2.05,0.85,4.08,1.29,6.11
		c0.91,4.25,1.89,8.47,2.92,12.68c0.51,2.04,0.99,4.09,1.53,6.12c1.48,5.64,3.06,11.25,4.77,16.79c0.44,1.42,0.93,2.82,1.38,4.23
		c1.45,4.54,2.97,9.04,4.57,13.51c0.83,2.31,1.69,4.59,2.56,6.88c1.33,3.5,2.7,6.98,4.11,10.43c0.95,2.32,1.89,4.64,2.88,6.94
		c1.86,4.33,3.81,8.61,5.81,12.86c1.36,2.9,2.78,5.76,4.21,8.62c1.62,3.24,3.25,6.48,4.96,9.68c1.38,2.59,2.8,5.14,4.22,7.7
		c1.49,2.66,3,5.29,4.55,7.91c1.53,2.6,3.05,5.21,4.64,7.77c1.72,2.78,3.51,5.52,5.3,8.26c71.9,110.58,194.32,185.23,334.59,191.16
		c-0.03,0.15-0.04,0.3-0.07,0.46h18.11c0.01,0,0.02,0,0.02,0c0.01,0,0.03,0,0.04,0h272.09v0h148.33v0V6597v-255.37v-203.56v-16.76
		H-2968.3z"/>
	<path class="st6" d="M-3808.82,5717.62v496.62l273.88,100.35c34.05-198.86,68.1-397.72,102.14-596.58
		C-3558.14,5717.88-3683.48,5717.75-3808.82,5717.62z"/>
	<g>
		<path class="st4" d="M-3206.81,5945.45l-201.74-130.96l-197.86,131.19v268.56h34.09v-117.3c0-26.55,21.52-48.07,48.07-48.07
			c26.55,0,48.07,21.52,48.07,48.07v117.3h22.52v-117.3c0-26.55,21.52-48.07,48.07-48.07c26.55,0,48.07,21.52,48.07,48.07v117.3
			h22.52v-117.3c0-26.55,21.52-48.07,48.07-48.07c26.55,0,48.07,21.52,48.07,48.07v117.3h32.05V5945.45z"/>
	</g>
	<path class="st4" d="M-3158.71,6508.89h-452.24c-1.13,0-2.04-0.91-2.04-2.04v-70.17c0-1.13,0.91-2.04,2.04-2.04h452.24
		c1.13,0,2.04,0.91,2.04,2.04v70.17C-3156.67,6507.97-3157.59,6508.89-3158.71,6508.89z"/>
	<path class="st4" d="M-3158.71,6351.72h-452.24c-1.13,0-2.04-0.91-2.04-2.04v-70.17c0-1.13,0.91-2.04,2.04-2.04h452.24
		c1.13,0,2.04,0.91,2.04,2.04v70.17C-3156.67,6350.8-3157.59,6351.72-3158.71,6351.72z"/>
</g>
<g>
	<path class="st1" d="M-5946.68,2908l-501.17,332.3v680.23h30.98h55.36h243.53h24.06h32.98v-297.11
		c0-67.25,54.52-121.76,121.76-121.76c67.25,0,121.76,54.52,121.76,121.76v297.11h27.25h29.78h243.53h49.64h31.55v-680.83
		L-5946.68,2908z"/>
	<path class="st2" d="M-5946.68,2908c0,110.57,0,221.14,0,331.71h511C-5606.01,3129.14-5776.34,3018.57-5946.68,2908z"/>
</g>
<g>
	<g>
		<path class="st5" d="M-1963.11,3835.47h-306.5c-87.42,0-158.54-71.12-158.54-158.54v-656.11c0-87.42,71.12-158.54,158.54-158.54
			h306.5c87.42,0,158.54,71.12,158.54,158.54v656.11C-1804.57,3764.34-1875.69,3835.47-1963.11,3835.47z M-2269.61,2927.78
			c-51.3,0-93.04,41.74-93.04,93.04v656.11c0,51.3,41.74,93.04,93.04,93.04h306.5c51.3,0,93.04-41.74,93.04-93.04v-656.11
			c0-51.3-41.74-93.04-93.04-93.04H-2269.61z"/>
	</g>
	<g>
		<path class="st5" d="M-2082.33,3633.58l-627.29-262.38l300.13-143.01c16.33-7.78,35.88-0.84,43.65,15.48
			c7.78,16.33,0.85,35.88-15.48,43.66l-167.86,79.98l463.26,193.77l398.83-215.25l-161.2-57.21c-17.05-6.05-25.96-24.78-19.91-41.82
			c6.05-17.05,24.79-25.95,41.82-19.91l300.18,106.54L-2082.33,3633.58z"/>
	</g>
	<g>
		<rect x="-2278.45" y="3242.3" class="st2" width="194.68" height="194.68"/>
	</g>
	<g>
		<polygon class="st1" points="-2278.45,3242.3 -2164.19,3128.04 -1967.81,3128.04 -1967.81,3321.02 -2083.77,3436.98 
			-2083.77,3242.3 		"/>
	</g>
	<g>
		<path class="st5" d="M-2074.08,3031.85h-87.87c-18.09,0-32.75-14.66-32.75-32.75c0-18.09,14.66-32.75,32.75-32.75h87.87
			c18.09,0,32.75,14.66,32.75,32.75C-2041.33,3017.19-2056,3031.85-2074.08,3031.85z"/>
	</g>
	<g>
		<path class="st5" d="M-2095.96,3738.72h-19.41c-18.09,0-32.75-14.66-32.75-32.75c0-18.09,14.66-32.75,32.75-32.75h19.41
			c18.09,0,32.75,14.66,32.75,32.75C-2063.2,3724.06-2077.87,3738.72-2095.96,3738.72z"/>
	</g>
</g>
<g>
	<g>
		<path class="st5" d="M-1814.14,7151.38h-306.5c-87.42,0-158.54-71.12-158.54-158.54v-656.11c0-87.42,71.12-158.54,158.54-158.54
			h306.5c87.42,0,158.54,71.12,158.54,158.54v656.11C-1655.6,7080.26-1726.72,7151.38-1814.14,7151.38z M-2120.64,6243.69
			c-51.3,0-93.04,41.74-93.04,93.04v656.11c0,51.3,41.74,93.04,93.04,93.04h306.5c51.3,0,93.04-41.74,93.04-93.04v-656.11
			c0-51.3-41.74-93.04-93.04-93.04H-2120.64z"/>
	</g>
	<g>
		<rect x="-2129.47" y="6615.38" class="st2" width="194.68" height="194.68"/>
	</g>
	<g>
		<polygon class="st1" points="-2129.47,6615.38 -2015.22,6501.13 -1818.84,6501.13 -1818.84,6694.11 -1934.79,6810.06 
			-1934.79,6615.38 		"/>
	</g>
	<g>
		<path class="st5" d="M-1925.11,6347.76h-87.87c-18.09,0-32.75-14.66-32.75-32.75s14.66-32.75,32.75-32.75h87.87
			c18.09,0,32.75,14.66,32.75,32.75S-1907.02,6347.76-1925.11,6347.76z"/>
	</g>
	<g>
		<path class="st5" d="M-1946.98,7054.63h-19.41c-18.09,0-32.75-14.66-32.75-32.75s14.66-32.75,32.75-32.75h19.41
			c18.09,0,32.75,14.66,32.75,32.75S-1928.89,7054.63-1946.98,7054.63z"/>
	</g>
	<g>
		<path class="st5" d="M-2246.44,6111.4c-7.41,0-14.86-2.5-20.98-7.62c-13.88-11.6-15.73-32.25-4.13-46.13
			c27.4-32.79,129.88-139.98,298.08-142.56c2.02-0.03,4.03-0.05,6.03-0.05c175.98,0,284.14,118.59,304.22,142.6
			c11.6,13.87,9.76,34.53-4.12,46.13c-13.88,11.6-34.53,9.76-46.13-4.12c-16.96-20.29-109.1-121.26-258.99-119.08
			c-143.97,2.21-232.54,99.58-248.83,119.07C-2227.77,6107.4-2237.07,6111.4-2246.44,6111.4z"/>
	</g>
	<g>
		<path class="st5" d="M-2246.44,5914.92c-7.41,0-14.86-2.5-20.98-7.62c-13.88-11.6-15.73-32.25-4.13-46.13
			c27.4-32.79,129.88-139.98,298.08-142.56c2.02-0.03,4.03-0.05,6.03-0.05c175.98,0,284.14,118.59,304.22,142.6
			c11.6,13.87,9.76,34.53-4.12,46.13c-13.88,11.6-34.53,9.76-46.13-4.12c-16.96-20.29-109.1-121.35-258.99-119.08
			c-143.97,2.21-232.54,99.58-248.83,119.07C-2227.77,5910.92-2237.07,5914.92-2246.44,5914.92z"/>
	</g>
</g>
<g>
	<g>
		<path class="st5" d="M-1879.3,5199.67h-306.5c-87.42,0-158.54-71.12-158.54-158.54v-656.11c0-87.42,71.12-158.54,158.54-158.54
			h306.5c87.42,0,158.54,71.12,158.54,158.54v656.11C-1720.76,5128.54-1791.88,5199.67-1879.3,5199.67z M-2185.8,4291.97
			c-51.3,0-93.04,41.74-93.04,93.04v656.11c0,51.3,41.74,93.04,93.04,93.04h306.5c51.3,0,93.04-41.74,93.04-93.04v-656.11
			c0-51.3-41.74-93.04-93.04-93.04H-2185.8z"/>
	</g>
	<g>
		<rect x="-2140.59" y="4492.74" class="st2" width="198.39" height="198.39"/>
	</g>
	<g>
		<path class="st5" d="M-1990.27,4396.05h-87.87c-18.09,0-32.75-14.66-32.75-32.75s14.66-32.75,32.75-32.75h87.87
			c18.09,0,32.75,14.66,32.75,32.75S-1972.18,4396.05-1990.27,4396.05z"/>
	</g>
	<g>
		<path class="st5" d="M-2012.14,5102.92h-19.41c-18.09,0-32.75-14.66-32.75-32.75c0-18.09,14.66-32.75,32.75-32.75h19.41
			c18.09,0,32.75,14.66,32.75,32.75C-1979.39,5088.26-1994.06,5102.92-2012.14,5102.92z"/>
	</g>
	<g>
		<path class="st5" d="M-1884,4901.67h-310.64c-18.09,0-32.75-14.66-32.75-32.75c0-18.09,14.66-32.75,32.75-32.75H-1884
			c18.09,0,32.75,14.66,32.75,32.75C-1851.25,4887.01-1865.91,4901.67-1884,4901.67z"/>
	</g>
	<g>
		<path class="st5" d="M-1884,4797.43h-310.64c-18.09,0-32.75-14.66-32.75-32.75s14.66-32.75,32.75-32.75H-1884
			c18.09,0,32.75,14.66,32.75,32.75S-1865.91,4797.43-1884,4797.43z"/>
	</g>
	<g>
		<path class="st5" d="M-1884,5006.66h-310.64c-18.09,0-32.75-14.66-32.75-32.75c0-18.09,14.66-32.75,32.75-32.75H-1884
			c18.09,0,32.75,14.66,32.75,32.75C-1851.25,4992-1865.91,5006.66-1884,5006.66z"/>
	</g>
</g>
<g>
	<g>
		<path class="st4" d="M-786.84,7177.79h-301.86c-86.09,0-156.14-70.04-156.14-156.14v-646.17c0-86.09,70.04-156.13,156.14-156.13
			h301.86c86.09,0,156.14,70.04,156.14,156.13v646.17C-630.7,7107.74-700.75,7177.79-786.84,7177.79z M-1088.7,6283.86
			c-50.52,0-91.63,41.1-91.63,91.62v646.17c0,50.52,41.1,91.63,91.63,91.63h301.86c50.52,0,91.63-41.1,91.63-91.63v-646.17
			c0-50.52-41.1-91.62-91.63-91.62H-1088.7z"/>
	</g>
	<g>
		<rect x="-1097.4" y="6649.91" class="st2" width="191.73" height="191.73"/>
	</g>
	<g>
		<polygon class="st1" points="-1097.4,6649.91 -984.87,6537.39 -791.47,6537.39 -791.47,6727.45 -905.66,6841.64 -905.66,6649.91 
					"/>
	</g>
	<g>
		<path class="st4" d="M-896.13,6386.35h-86.54c-17.82,0-32.25-14.44-32.25-32.25s14.44-32.25,32.25-32.25h86.54
			c17.82,0,32.25,14.44,32.25,32.25S-878.31,6386.35-896.13,6386.35z"/>
	</g>
	<g>
		<path class="st4" d="M-917.67,7082.5h-19.12c-17.82,0-32.25-14.44-32.25-32.25s14.44-32.25,32.25-32.25h19.12
			c17.82,0,32.25,14.44,32.25,32.25S-899.85,7082.5-917.67,7082.5z"/>
	</g>
	<g>
		<path class="st4" d="M-662.94,6153.56c-9.22,0-18.38-3.94-24.76-11.57c-16.7-19.98-107.51-119.41-255.06-117.27
			c-141.77,2.18-229.01,98.07-245.06,117.27c-11.42,13.67-31.76,15.48-45.43,4.06c-13.67-11.42-15.48-31.76-4.06-45.43
			c26.99-32.29,127.94-137.86,293.56-140.4c176.82-2.52,285.55,116.47,305.55,140.4c11.43,13.67,9.61,34.01-4.06,45.43
			C-648.31,6151.1-655.65,6153.56-662.94,6153.56z"/>
	</g>
	<g>
		<path class="st4" d="M-1212.6,5960.07c-7.3,0-14.63-2.46-20.67-7.51c-13.67-11.42-15.49-31.76-4.07-45.43
			c26.99-32.29,127.92-137.86,293.57-140.4c1.98-0.03,3.97-0.05,5.93-0.05c173.35,0,279.85,116.79,299.62,140.45
			c11.43,13.67,9.61,34.01-4.06,45.43c-13.67,11.43-34.01,9.61-45.43-4.06c-16.7-19.98-107.51-119.35-255.06-117.28
			c-141.79,2.18-229.01,98.07-245.06,117.27C-1194.21,5956.13-1203.37,5960.07-1212.6,5960.07z"/>
	</g>
</g>
<g>
	<g>
		<path class="st4" d="M-839.46,5170.76h-301.86c-86.09,0-156.14-70.04-156.14-156.14v-646.17c0-86.09,70.04-156.13,156.14-156.13
			h301.86c86.09,0,156.14,70.04,156.14,156.13v646.17C-683.32,5100.72-753.36,5170.76-839.46,5170.76z M-1141.31,4276.83
			c-50.52,0-91.63,41.1-91.63,91.62v646.17c0,50.52,41.1,91.63,91.63,91.63h301.86c50.52,0,91.63-41.1,91.63-91.63v-646.17
			c0-50.52-41.1-91.62-91.63-91.62H-1141.31z"/>
	</g>
	<g>
		<rect x="-1096.78" y="4474.55" class="st2" width="195.39" height="195.39"/>
	</g>
	<g>
		<path class="st4" d="M-948.75,4379.32h-86.54c-17.82,0-32.25-14.44-32.25-32.25s14.44-32.25,32.25-32.25h86.54
			c17.82,0,32.25,14.44,32.25,32.25S-930.93,4379.32-948.75,4379.32z"/>
	</g>
	<g>
		<path class="st4" d="M-970.29,5075.47h-19.12c-17.82,0-32.25-14.44-32.25-32.25s14.44-32.25,32.25-32.25h19.12
			c17.82,0,32.25,14.44,32.25,32.25S-952.47,5075.47-970.29,5075.47z"/>
	</g>
	<g>
		<path class="st4" d="M-844.08,4877.28h-305.93c-17.82,0-32.25-14.44-32.25-32.25c0-17.82,14.44-32.25,32.25-32.25h305.93
			c17.82,0,32.25,14.44,32.25,32.25C-811.83,4862.84-826.27,4877.28-844.08,4877.28z"/>
	</g>
	<g>
		<path class="st4" d="M-844.08,4774.61h-305.93c-17.82,0-32.25-14.44-32.25-32.25c0-17.82,14.44-32.25,32.25-32.25h305.93
			c17.82,0,32.25,14.44,32.25,32.25C-811.83,4760.18-826.27,4774.61-844.08,4774.61z"/>
	</g>
	<g>
		<path class="st4" d="M-844.08,4980.68h-305.93c-17.82,0-32.25-14.44-32.25-32.25c0-17.82,14.44-32.25,32.25-32.25h305.93
			c17.82,0,32.25,14.44,32.25,32.25C-811.83,4966.24-826.27,4980.68-844.08,4980.68z"/>
	</g>
</g>
<circle class="st5" cx="7717.4" cy="7336.9" r="197.18"/>
<circle class="st1" cx="8279.64" cy="7336.9" r="197.18"/>
<g>
	<g>
		<circle class="st5" cx="7782.39" cy="8085.54" r="308.03"/>
	</g>
	<g>
		<g>
			<line class="st4" x1="7569.05" y1="8085.54" x2="7995.72" y2="8085.54"/>
			<path class="st4" d="M7995.71,8104.01h-426.66c-10.21,0-18.46-8.26-18.46-18.46c0-10.21,8.26-18.46,18.46-18.46h426.66
				c10.21,0,18.46,8.26,18.46,18.46C8014.18,8095.75,8005.92,8104.01,7995.71,8104.01z"/>
		</g>
		<g>
			<line class="st4" x1="7782.39" y1="7872.21" x2="7782.39" y2="8298.87"/>
			<path class="st4" d="M7782.39,8317.33c-10.21,0-18.46-8.26-18.46-18.46v-426.66c0-10.21,8.26-18.46,18.46-18.46
				c10.21,0,18.46,8.26,18.46,18.46v426.66C7800.86,8309.07,7792.6,8317.33,7782.39,8317.33z"/>
		</g>
	</g>
</g>
<g>
	<g>
		<circle class="st5" cx="6875.36" cy="7220.57" r="297.63"/>
	</g>
	<g>
		<g>
			<line class="st4" x1="6729.6" y1="7366.32" x2="7021.11" y2="7074.81"/>
			<path class="st4" d="M7033.73,7087.44l-291.51,291.51c-6.97,6.97-18.26,6.97-25.23,0c-6.97-6.97-6.97-18.26,0-25.23
				l291.51-291.51c6.97-6.97,18.26-6.97,25.23,0C7040.7,7069.18,7040.7,7080.46,7033.73,7087.44z"/>
		</g>
		<g>
			<line class="st4" x1="6729.6" y1="7074.81" x2="7021.11" y2="7366.32"/>
			<path class="st4" d="M7033.73,7378.93c-6.97,6.97-18.26,6.97-25.23,0l-291.51-291.51c-6.97-6.97-6.97-18.26,0-25.23
				c6.97-6.97,18.26-6.97,25.23,0l291.51,291.51C7040.7,7360.67,7040.7,7371.96,7033.73,7378.93z"/>
		</g>
	</g>
</g>
<g>
	<g>
		<circle class="st7" cx="6913.66" cy="8103.37" r="297.63"/>
	</g>
	<g>
		<g>
			<line class="st4" x1="6707.53" y1="8103.37" x2="7119.79" y2="8103.37"/>
			<path class="st4" d="M7119.78,8121.22h-412.25c-9.86,0-17.84-7.98-17.84-17.84c0-9.86,7.98-17.84,17.84-17.84h412.25
				c9.86,0,17.84,7.98,17.84,17.84C7137.62,8113.24,7129.64,8121.22,7119.78,8121.22z"/>
		</g>
		<g>
			<line class="st4" x1="6913.66" y1="7897.24" x2="6913.66" y2="8309.5"/>
			<path class="st4" d="M6913.67,8327.34c-9.86,0-17.84-7.98-17.84-17.84v-412.25c0-9.86,7.98-17.84,17.84-17.84
				c9.86,0,17.84,7.98,17.84,17.84v412.25C6931.51,8319.36,6923.53,8327.34,6913.67,8327.34z"/>
		</g>
	</g>
</g>
</svg>
